# File created by Blade
# Date/Time:  Tue Sep 30 19:33:40 2014
#---------------------------------------------------------
:version 1.10
:name HOM
:units
  mass 1.0
  length 1.000000
  angle deg
:documentation
     Acclaim Skeleton File
:root
   axis xyz
   order TX TY TZ RX RY RZ
   position 0.000000 0.000000 0.000000
   orientation 0 0 0
:bonedata
   begin
      id 1
      name Spine_dum
      direction 0.000000 1.000000 0.000000
      length 3.241213
      axis 0.0 0.0 0.0 xyz
   end
   begin
      id 2
      name LeftUpLeg_dum
      direction 1.000000 0.000000 0.000000
      length 3.434019
      axis 0.0 0.0 0.0 xyz
   end
   begin
      id 3
      name RightUpLeg_dum
      direction -1.000000 0.000000 0.000000
      length 3.434019
      axis 0.0 0.0 0.0 xyz
   end
   begin
      id 4
      name Spine
      direction 0.000000 1.000000 0.000000
      length 0.000000
      axis 0.0 0.0 0.0 xyz
      dof rx ry rz
   end
   begin
      id 5
      name Spine_dum1
      direction 0.000000 1.000000 0.000000
      length 18.382958
      axis 0.0 0.0 0.0 xyz
   end
   begin
      id 6
      name Spine_dum2
      direction 0.000000 1.000000 0.000000
      length 12.828261
      axis 0.0 0.0 0.0 xyz
   end
   begin
      id 7
      name Spine_dum3
      direction 0.000000 1.000000 0.000000
      length 12.828261
      axis 0.0 0.0 0.0 xyz
   end
   begin
      id 8
      name Head
      direction 0.000000 1.000000 0.000000
      length 4.527550
      axis 0.0 0.0 0.0 xyz
      dof rx ry rz
   end
   begin
      id 9
      name LeftShoulder
      direction 1.000000 0.000000 0.000000
      length 7.748055
      axis 0.0 0.0 -90.0 xyz
      dof rx ry rz
   end
   begin
      id 10
      name LeftArm
      direction 1.000000 0.000000 0.000000
      length 10.635614
      axis 0.0 0.0 -90.0 xyz
      dof rx ry rz
   end
   begin
      id 11
      name LeftForeArm
      direction 1.000000 0.000000 0.000000
      length 8.346755
      axis 0.0 0.0 -90.0 xyz
      dof ry rz rx
   end
   begin
      id 12
      name LeftHand
      direction 0.000000 0.000000 0.000000
      length 0.000000
      axis 0.0 0.0 -90.0 xyz
      dof rx ry rz
   end
   begin
      id 13
      name LeftHand_dum1
      direction 0.000000 0.000000 0.000000
      length 0.000000
      axis 0.0 0.0 -90.0 xyz
   end
   begin
      id 14
      name LeftHand_dum2
      direction 1.000000 0.000000 0.000000
      length 3.937000
      axis 0.0 0.0 -90.0 xyz
   end
   begin
      id 15
      name LeftHandThumb1
      direction 0.000000 0.000000 1.000000
      length 3.937000
      axis 0.0 0.0 -90.0 xyz
      dof rx rz ry
   end
   begin
      id 16
      name RightShoulder
      direction -1.000000 0.000000 0.000000
      length 7.748055
      axis 0.0 0.0 90.0 xyz
      dof rx ry rz
   end
   begin
      id 17
      name RightArm
      direction -1.000000 0.000000 0.000000
      length 10.635614
      axis 0.0 0.0 90.0 xyz
      dof rx ry rz
   end
   begin
      id 18
      name RightForeArm
      direction -1.000000 0.000000 0.000000
      length 8.346755
      axis 0.0 0.0 90.0 xyz
      dof ry rz rx
   end
   begin
      id 19
      name RightHand
      direction 0.000000 0.000000 0.000000
      length 0.000000
      axis 0.0 0.0 90.0 xyz
      dof rx ry rz
   end
   begin
      id 20
      name RightHand_dum1
      direction 0.000000 0.000000 0.000000
      length 0.000000
      axis 0.0 0.0 90.0 xyz
   end
   begin
      id 21
      name RightHand_dum2
      direction -1.000000 0.000000 0.000000
      length 3.937000
      axis 0.0 0.0 90.0 xyz
   end
   begin
      id 22
      name RightHandThumb1
      direction 0.000000 0.000000 1.000000
      length 3.937000
      axis 0.0 0.0 90.0 xyz
      dof rx rz ry
   end
   begin
      id 23
      name LeftUpLeg
      direction 0.000000 -1.000000 0.000000
      length 15.713025
      axis 0.0 0.0 0.0 xyz
      dof rx ry rz
   end
   begin
      id 24
      name LeftLeg
      direction 0.000000 -1.000000 0.000000
      length 14.435119
      axis 0.0 0.0 0.0 xyz
      dof rx ry rz
   end
   begin
      id 25
      name LeftFoot
      direction 0.000000 -0.258819 0.965926
      length 4.938895
      axis 15.0 0.0 0.0 xyz
      dof rx ry rz
   end
   begin
      id 26
      name LeftToeBase
      direction 0.000000 0.000000 1.000000
      length 2.952750
      axis 0.0 0.0 0.0 xyz
      dof rx ry rz
   end
   begin
      id 27
      name RightUpLeg
      direction 0.000000 -1.000000 0.000000
      length 15.713025
      axis 0.0 0.0 0.0 xyz
      dof rx ry rz
   end
   begin
      id 28
      name RightLeg
      direction 0.000000 -1.000000 0.000000
      length 14.435119
      axis 0.0 0.0 0.0 xyz
      dof rx ry rz
   end
   begin
      id 29
      name RightFoot
      direction 0.000000 -0.258819 0.965926
      length 4.938895
      axis 15.0 0.0 0.0 xyz
      dof rx ry rz
   end
   begin
      id 30
      name RightToeBase
      direction 0.000000 0.000000 1.000000
      length 2.952750
      axis 0.0 0.0 0.0 xyz
      dof rx ry rz
   end
:hierarchy
   begin
      root Spine_dum LeftUpLeg_dum RightUpLeg_dum
      Spine_dum Spine
      LeftUpLeg_dum LeftUpLeg
      RightUpLeg_dum RightUpLeg
      Spine Spine_dum1 Spine_dum2 Spine_dum3
      Spine_dum1 Head
      Spine_dum2 LeftShoulder
      Spine_dum3 RightShoulder
      LeftShoulder LeftArm
      LeftArm LeftForeArm
      LeftForeArm LeftHand
      LeftHand LeftHand_dum1 LeftHand_dum2
      LeftHand_dum1 LeftHandThumb1
      RightShoulder RightArm
      RightArm RightForeArm
      RightForeArm RightHand
      RightHand RightHand_dum1 RightHand_dum2
      RightHand_dum1 RightHandThumb1
      LeftUpLeg LeftLeg
      LeftLeg LeftFoot
      LeftFoot LeftToeBase
      RightUpLeg RightLeg
      RightLeg RightFoot
      RightFoot RightToeBase
   end

# File created by Blade
# Date/Time:  Mon Sep 22 21:09:19 2014
# Frame Rate: 120.000 fps
#------------------------------------------------------
:FULLY-SPECIFIED
:DEGREES
113
root -2.817221 32.406005 -3.179162 36.092592 20.090274 2.046066
Spine -37.791118 -2.177107 1.368320
Head 1.064739 26.908884 -1.402048
LeftShoulder -18.297281 45.892492 9.525220
LeftArm 58.940554 -8.780492 -79.700778
LeftForeArm 26.670143 0.000000 28.048567
LeftHand -27.998756 -0.000000 6.257849
LeftHandThumb1 -26.253704 0.000000 33.147579
RightShoulder -19.351453 -50.716330 -11.991812
RightArm 49.461233 10.493735 75.618726
RightForeArm 26.187512 -0.000000 0.941553
RightHand 16.486053 -0.000000 -3.030845
RightHandThumb1 -24.326973 -0.000000 -32.862282
LeftUpLeg -32.667870 -6.908577 2.040040
LeftLeg 1.054042 -0.000000 -0.000000
LeftFoot -4.998820 0.122244 4.407372
LeftToeBase 3.027971 -0.000000 -0.000000
RightUpLeg -28.659345 -14.967530 7.663784
RightLeg -3.140260 -0.000000 0.000000
RightFoot -12.123917 -10.302174 17.867110
RightToeBase 16.507812 -0.000000 -0.000000
114
root -2.788978 32.407625 -3.195189 35.978707 20.427049 2.039208
Spine -37.672108 -2.149504 1.321848
Head 1.093573 27.115266 -1.282488
LeftShoulder -18.084733 45.929466 9.467842
LeftArm 58.878384 -7.709665 -79.712220
LeftForeArm 26.522934 -0.000000 27.987564
LeftHand -27.848757 -0.000000 6.184312
LeftHandThumb1 -26.253704 0.000000 33.147579
RightShoulder -19.207600 -50.881900 -11.822155
RightArm 49.583792 9.674886 75.848487
RightForeArm 26.329138 -0.000000 0.959959
RightHand 16.625210 -0.000000 -2.792307
RightHandThumb1 -24.326973 -0.000000 -32.862282
LeftUpLeg -32.792568 -7.122665 2.117535
LeftLeg 1.490632 -0.000000 -0.000000
LeftFoot -5.771224 0.458740 3.442551
LeftToeBase 4.768774 -0.000000 -0.000000
RightUpLeg -28.702975 -15.299104 7.825317
RightLeg -2.885522 -0.000000 0.000000
RightFoot -12.235002 -10.347661 17.858241
RightToeBase 16.519595 -0.000000 -0.000000
115
root -2.763764 32.409091 -3.220214 35.868535 20.704992 2.007201
Spine -37.531007 -2.072015 1.268000
Head 1.086753 27.296587 -1.187356
LeftShoulder -17.905377 45.971300 9.360787
LeftArm 58.868382 -6.601249 -79.511669
LeftForeArm 26.240644 -0.000000 27.884438
LeftHand -27.868320 -0.000000 6.186383
LeftHandThumb1 -26.253704 0.000000 33.147579
RightShoulder -19.092336 -50.946224 -11.648403
RightArm 49.724293 8.827592 76.010386
RightForeArm 26.318794 -0.000000 0.868376
RightHand 16.490991 -0.000000 -2.396706
RightHandThumb1 -24.326973 -0.000000 -32.862282
LeftUpLeg -32.998379 -7.241805 2.169911
LeftLeg 2.072912 -0.000000 -0.000000
LeftFoot -6.353165 0.843674 3.282499
LeftToeBase 5.230067 -0.000000 -0.000000
RightUpLeg -28.700253 -15.329143 7.825184
RightLeg -2.684801 -0.000000 0.000000
RightFoot -12.364716 -10.605526 17.894630
RightToeBase 16.563840 -0.000000 -0.000000
116
root -2.733823 32.410969 -3.243528 35.717475 21.042098 2.017059
Spine -37.341510 -2.058189 1.217232
Head 1.095531 27.457562 -1.106504
LeftShoulder -17.717266 46.067227 9.268503
LeftArm 58.903475 -5.488548 -79.348815
LeftForeArm 26.049619 -0.000000 27.796469
LeftHand -27.781593 0.000000 5.969588
LeftHandThumb1 -26.253704 0.000000 33.147579
RightShoulder -18.915082 -51.052553 -11.514475
RightArm 49.864731 8.018959 76.192508
RightForeArm 26.642613 -0.000000 0.816697
RightHand 16.353142 -0.000000 -2.076620
RightHandThumb1 -24.326973 -0.000000 -32.862282
LeftUpLeg -33.175829 -7.504498 2.236605
LeftLeg 2.722944 -0.000000 -0.000000
LeftFoot -6.851315 1.645032 3.491566
LeftToeBase 5.059570 -0.000000 -0.000000
RightUpLeg -28.711931 -15.507608 7.851150
RightLeg -2.355631 -0.000000 0.000000
RightFoot -12.547523 -10.791094 17.884748
RightToeBase 16.520452 -0.000000 -0.000000
117
root -2.702703 32.413767 -3.264992 35.559597 21.326722 1.988946
Spine -37.164608 -1.978086 1.161949
Head 1.127643 27.604222 -1.018356
LeftShoulder -17.548192 46.234748 9.139207
LeftArm 59.023917 -4.403106 -79.139964
LeftForeArm 25.769488 0.000000 27.675926
LeftHand -27.655493 0.000000 6.005346
LeftHandThumb1 -26.253704 0.000000 33.147579
RightShoulder -18.816086 -51.219468 -11.304258
RightArm 50.077003 7.162491 76.269945
RightForeArm 27.157028 -0.000000 0.772655
RightHand 16.150831 -0.000000 -1.632581
RightHandThumb1 -24.326973 -0.000000 -32.862282
LeftUpLeg -33.382280 -7.658870 2.273719
LeftLeg 3.458049 -0.000000 -0.000000
LeftFoot -7.414892 2.835914 3.700652
LeftToeBase 5.227590 -0.000000 -0.000000
RightUpLeg -28.796036 -15.844447 8.003641
RightLeg -1.965797 -0.000000 0.000000
RightFoot -12.647312 -10.729462 17.894762
RightToeBase 16.444215 -0.000000 -0.000000
118
root -2.672948 32.417807 -3.286700 35.429145 21.630844 1.945402
Spine -37.017812 -1.940589 1.152560
Head 1.139832 27.752752 -0.949793
LeftShoulder -17.410344 46.376108 9.046936
LeftArm 59.095987 -3.264555 -78.887198
LeftForeArm 25.450269 -0.000000 27.582323
LeftHand -27.484349 -0.000000 5.810311
LeftHandThumb1 -26.253704 0.000000 33.147579
RightShoulder -18.661372 -51.325806 -11.138728
RightArm 50.262650 6.349693 76.319084
RightForeArm 27.185664 -0.000000 0.682118
RightHand 16.135962 -0.000000 -1.023630
RightHandThumb1 -24.326973 -0.000000 -32.862282
LeftUpLeg -33.622884 -7.833806 2.341119
LeftLeg 4.166447 -0.000000 -0.000000
LeftFoot -7.828995 4.721555 4.127067
LeftToeBase 5.292929 -0.000000 -0.000000
RightUpLeg -28.896242 -15.991146 8.085941
RightLeg -1.544548 -0.000000 0.000000
RightFoot -12.829275 -10.955776 17.782880
RightToeBase 16.494366 -0.000000 -0.000000
119
root -2.642475 32.423271 -3.310564 35.318920 21.905202 1.920513
Spine -36.884422 -1.898127 1.103567
Head 1.161864 27.844983 -0.828637
LeftShoulder -17.224689 46.495230 9.013364
LeftArm 59.135665 -2.109511 -78.614062
LeftForeArm 25.224136 0.000000 27.522099
LeftHand -27.477692 0.000000 5.895032
LeftHandThumb1 -26.253704 0.000000 33.147579
RightShoulder -18.557270 -51.451330 -10.922503
RightArm 50.510954 5.528785 76.324065
RightForeArm 27.381483 -0.000000 0.624881
RightHand 15.715633 -0.000000 -0.473048
RightHandThumb1 -24.326973 -0.000000 -32.862282
LeftUpLeg -33.883849 -7.812161 2.255341
LeftLeg 4.900536 -0.000000 -0.000000
LeftFoot -7.948491 6.665166 4.618351
LeftToeBase 4.604081 -0.000000 -0.000000
RightUpLeg -28.968263 -15.982973 8.043981
RightLeg -1.165999 -0.000000 0.000000
RightFoot -13.025331 -11.251312 17.836541
RightToeBase 16.442690 -0.000000 -0.000000
120
root -2.614110 32.426693 -3.326607 35.142017 22.200886 1.868738
Spine -36.703903 -1.896389 1.099980
Head 1.191061 27.956572 -0.711103
LeftShoulder -17.075658 46.607442 8.984366
LeftArm 59.160584 -0.944937 -78.289427
LeftForeArm 24.903126 -0.000000 27.449888
LeftHand -27.352828 -0.000000 5.913603
LeftHandThumb1 -26.253704 0.000000 33.147579
RightShoulder -18.471174 -51.526776 -10.707194
RightArm 50.752483 4.566621 76.160062
RightForeArm 27.684891 0.000000 0.551527
RightHand 15.473821 -0.000000 -0.157379
RightHandThumb1 -24.326973 -0.000000 -32.862282
LeftUpLeg -34.094444 -7.769838 2.219062
LeftLeg 5.700940 -0.000000 -0.000000
LeftFoot -8.265432 8.360588 4.709788
LeftToeBase 4.569144 -0.000000 -0.000000
RightUpLeg -29.038100 -16.065324 8.071761
RightLeg -0.667644 -0.000000 0.000000
RightFoot -13.252983 -11.454190 17.862027
RightToeBase 16.425441 -0.000000 -0.000000
121
root -2.581607 32.431390 -3.339454 34.961378 22.446167 1.787727
Spine -36.552288 -1.857538 1.102429
Head 1.236116 28.031363 -0.586904
LeftShoulder -16.940709 46.762659 8.962449
LeftArm 59.202851 0.222354 -78.006664
LeftForeArm 24.746232 -0.000000 27.422597
LeftHand -27.236262 -0.000000 5.787229
LeftHandThumb1 -26.253704 0.000000 33.147579
RightShoulder -18.426368 -51.692525 -10.424850
RightArm 51.127593 3.669148 75.987636
RightForeArm 27.949459 -0.000000 0.472059
RightHand 15.066520 -0.000000 0.084705
RightHandThumb1 -24.326973 -0.000000 -32.862282
LeftUpLeg -34.291302 -7.615292 2.133599
LeftLeg 6.479336 -0.000000 -0.000000
LeftFoot -8.682372 9.782027 4.541401
LeftToeBase 4.511575 -0.000000 -0.000000
RightUpLeg -29.172921 -16.144774 8.122689
RightLeg -0.051712 -0.000000 0.000000
RightFoot -13.495686 -11.687049 17.849503
RightToeBase 15.979180 -0.000000 -0.000000
122
root -2.551406 32.435552 -3.355379 34.757163 22.735787 1.712228
Spine -36.352221 -1.880143 1.148450
Head 1.268031 28.117591 -0.488172
LeftShoulder -16.802115 46.847622 8.944257
LeftArm 59.213029 1.366918 -77.653112
LeftForeArm 24.386304 -0.000000 27.324079
LeftHand -27.103835 0.000000 5.968916
LeftHandThumb1 -26.253704 0.000000 33.147579
RightShoulder -18.329278 -51.788178 -10.219191
RightArm 51.460036 2.865944 75.974465
RightForeArm 28.208188 0.000000 0.454767
RightHand 14.892405 0.000000 0.383640
RightHandThumb1 -24.326973 -0.000000 -32.862282
LeftUpLeg -34.465754 -7.237076 1.893958
LeftLeg 7.220767 -0.000000 -0.000000
LeftFoot -8.760701 10.373359 4.955076
LeftToeBase 4.160509 -0.000000 -0.000000
RightUpLeg -29.360466 -16.312288 8.212905
RightLeg 0.698243 -0.000000 -0.000000
RightFoot -13.766523 -11.763196 17.824042
RightToeBase 15.843437 -0.000000 -0.000000
